<?xml version="1.0" encoding="UTF-8" standalone="no"?><!DOCTYPE svg PUBLIC "-//W3C//DTD SVG 1.1//EN" "http://www.w3.org/Graphics/SVG/1.1/DTD/svg11.dtd"><svg width="100%" height="100%" viewBox="0 0 3334 3334" version="1.1" xmlns="http://www.w3.org/2000/svg" xmlns:xlink="http://www.w3.org/1999/xlink" xml:space="preserve" xmlns:serif="http://www.serif.com/" style="fill-rule:evenodd;clip-rule:evenodd;stroke-linejoin:round;stroke-miterlimit:2;"><path d="M2366.18,0l-1397.36,0c-606.969,0 -968.816,361.667 -968.816,968.333l0,1395c0,608.334 361.847,970 968.816,970l1395.7,0c606.969,0 968.816,-361.666 968.816,-968.333l-0,-1396.67c1.667,-606.666 -360.18,-968.333 -967.149,-968.333Zm-378.522,2355l-820.409,-0c-68.367,-0 -125.062,-56.667 -125.062,-125c-0,-68.333 56.695,-125 125.062,-125l820.409,0c213.44,0 388.527,-173.333 388.527,-388.333c0,-215 -173.42,-388.334 -388.527,-388.334l-845.421,0l43.355,43.334c48.357,50 48.357,128.333 -1.668,178.333c-25.012,25 -56.695,36.667 -88.377,36.667c-31.683,-0 -63.365,-11.667 -88.377,-36.667l-261.798,-263.333c-48.357,-48.334 -48.357,-128.334 0,-176.667l261.798,-261.667c48.357,-48.333 128.397,-48.333 176.754,0c48.358,48.334 48.358,128.334 0,176.667l-55.027,55l858.761,0c351.842,0 638.652,286.667 638.652,638.333c-0,351.667 -286.81,636.667 -638.652,636.667Z" style="fill:#6a87ff;fill-rule:nonzero;"/></svg>