<?xml version="1.0" encoding="UTF-8" standalone="no"?><!DOCTYPE svg PUBLIC "-//W3C//DTD SVG 1.1//EN" "http://www.w3.org/Graphics/SVG/1.1/DTD/svg11.dtd"><svg width="100%" height="100%" viewBox="0 0 3334 3334" version="1.1" xmlns="http://www.w3.org/2000/svg" xmlns:xlink="http://www.w3.org/1999/xlink" xml:space="preserve" xmlns:serif="http://www.serif.com/" style="fill-rule:evenodd;clip-rule:evenodd;stroke-linejoin:round;stroke-miterlimit:2;"><g><g><path d="M2402.73,1356.54l-1853.15,-1274.67c-76.145,-52.491 -155.341,-80.195 -223.142,-80.195c-148.86,0 -247.552,124.856 -247.552,325.776l0,2680.16c0,98.151 28.541,180.155 70.853,237.237c42.96,57.864 110.167,88.484 182.774,88.484c67.775,0 143.839,-27.757 219.956,-80.168l1851.48,-1274.67c119.024,-82.031 184.287,-192.441 184.26,-311.033c-0,-118.537 -66.289,-228.947 -185.475,-310.924Z" style="fill:#6a87ff;fill-rule:nonzero;"/></g></g><g><g><g><path d="M3081.2,3332.5l-1.978,-0.027c-0.324,0 -0.641,0.027 -0.965,0.027l2.943,0Z" style="fill-rule:nonzero;"/><path d="M3075.75,0l-76.604,0.216c-100.312,0 -187.149,81.761 -187.149,182.208l-0,2965.92c-0,100.554 85.406,183.098 185.853,183.098l81.376,1.026c99.94,-0.533 175.221,-83.786 175.221,-183.962l-0,-2966.27c-0,-100.446 -78.305,-182.234 -178.697,-182.234Z" style="fill:#6a87ff;fill-rule:nonzero;"/></g></g></g></svg>