<?xml version="1.0" encoding="UTF-8" standalone="no"?><!DOCTYPE svg PUBLIC "-//W3C//DTD SVG 1.1//EN" "http://www.w3.org/Graphics/SVG/1.1/DTD/svg11.dtd"><svg width="100%" height="100%" viewBox="0 0 3334 3334" version="1.1" xmlns="http://www.w3.org/2000/svg" xmlns:xlink="http://www.w3.org/1999/xlink" xml:space="preserve" xmlns:serif="http://www.serif.com/" style="fill-rule:evenodd;clip-rule:evenodd;stroke-linejoin:round;stroke-miterlimit:2;"><g id="Page-1"><g id="Dribbble-Light-Preview"><g id="icons"><path id="pause---1006-" serif:id="pause-[#1006]" d="M833.333,0c-230,0 -416.666,186.667 -416.666,416.667l-0,2500c-0,230 186.666,416.666 416.666,416.666c230,0 416.667,-186.666 416.667,-416.666l0,-2500c0,-230 -186.667,-416.667 -416.667,-416.667m2083.33,416.667l-0,2500c-0,230 -186.667,416.666 -416.667,416.666c-230,0 -416.667,-186.666 -416.667,-416.666l0,-2500c0,-230 186.667,-416.667 416.667,-416.667c230,0 416.667,186.667 416.667,416.667" style="fill:#6a87ff;"/></g></g></g></svg>